<?xml version="1.0" encoding="UTF-8"?>
<svg width="512" height="512" viewBox="0 0 512 512" fill="none" xmlns="http://www.w3.org/2000/svg">
  <rect width="512" height="512" rx="64" fill="#7AC943"/>

  <path d="M95 230L256 105L417 230" 
        stroke="white" 
        stroke-width="28" 
        stroke-linecap="round" 
        stroke-linejoin="round"/>

  <rect x="340" y="120" width="38" height="90" rx="6" fill="white"/>

  <rect x="150" y="225" width="212" height="170" rx="10" fill="white"/>

  <rect x="205" y="290" width="48" height="105" rx="6" fill="#7AC943"/>

  <rect x="285" y="255" width="32" height="32" rx="4" fill="#7AC943"/>
  <rect x="325" y="255" width="32" height="32" rx="4" fill="#7AC943"/>
  <rect x="285" y="295" width="32" height="32" rx="4" fill="#7AC943"/>
  <rect x="325" y="295" width="32" height="32" rx="4" fill="#7AC943"/>

  <path d="M340 335L402 370L372 378L390 420L370 432L352 390L330 408L340 335Z" 
        fill="#111111" 
        stroke="white" 
        stroke-width="6" 
        stroke-linejoin="round"/>
</svg>
